<?xml version="1.0" encoding="UTF-8" standalone="no"?><!DOCTYPE svg PUBLIC "-//W3C//DTD SVG 1.1//EN" "http://www.w3.org/Graphics/SVG/1.1/DTD/svg11.dtd"><svg width="100%" height="100%" viewBox="0 0 450 146" version="1.1" xmlns="http://www.w3.org/2000/svg" xmlns:xlink="http://www.w3.org/1999/xlink" xml:space="preserve" xmlns:serif="http://www.serif.com/" style="fill-rule:evenodd;clip-rule:evenodd;stroke-linejoin:round;stroke-miterlimit:2;"><g><g><path d="M184.907,99.177l0,-48.623l15.755,0c5.97,0 9.861,0.243 11.674,0.73c2.786,0.729 5.119,2.316 6.999,4.759c1.879,2.443 2.819,5.6 2.819,9.469c-0,2.985 -0.542,5.495 -1.625,7.529c-1.084,2.034 -2.46,3.632 -4.13,4.793c-1.669,1.161 -3.366,1.929 -5.091,2.305c-2.344,0.464 -5.738,0.696 -10.182,0.696l-6.401,0l-0,18.342l-9.818,-0Zm9.818,-40.398l-0,13.798l5.373,-0c3.869,-0 6.456,-0.254 7.761,-0.763c1.304,-0.509 2.327,-1.305 3.068,-2.388c0.741,-1.084 1.111,-2.344 1.111,-3.781c-0,-1.769 -0.52,-3.228 -1.559,-4.378c-1.039,-1.15 -2.355,-1.869 -3.947,-2.156c-1.172,-0.221 -3.527,-0.332 -7.064,-0.332l-4.743,0Z" style="fill:#fff;fill-rule:nonzero;"/><path d="M230.213,99.177l0,-48.623l15.755,0c5.97,0 9.861,0.243 11.674,0.73c2.786,0.729 5.119,2.316 6.999,4.759c1.879,2.443 2.819,5.6 2.819,9.469c-0,2.985 -0.542,5.495 -1.625,7.529c-1.084,2.034 -2.46,3.632 -4.13,4.793c-1.669,1.161 -3.366,1.929 -5.091,2.305c-2.344,0.464 -5.738,0.696 -10.182,0.696l-6.401,0l-0,18.342l-9.818,-0Zm9.818,-40.398l-0,13.798l5.373,-0c3.869,-0 6.456,-0.254 7.761,-0.763c1.304,-0.509 2.327,-1.305 3.068,-2.388c0.74,-1.084 1.111,-2.344 1.111,-3.781c-0,-1.769 -0.52,-3.228 -1.559,-4.378c-1.039,-1.15 -2.355,-1.869 -3.947,-2.156c-1.172,-0.221 -3.527,-0.332 -7.064,-0.332l-4.743,0Z" style="fill:#fff;fill-rule:nonzero;"/><path d="M275.486,50.554l17.943,0c4.047,0 7.131,0.31 9.254,0.929c2.852,0.84 5.296,2.332 7.33,4.477c2.034,2.145 3.582,4.771 4.643,7.877c1.061,3.107 1.592,6.938 1.592,11.493c0,4.002 -0.497,7.451 -1.492,10.348c-1.216,3.538 -2.952,6.401 -5.208,8.59c-1.702,1.658 -4.002,2.952 -6.898,3.88c-2.167,0.686 -5.064,1.029 -8.69,1.029l-18.474,-0l0,-48.623Zm9.817,8.225l0,32.205l7.33,0c2.742,0 4.721,-0.154 5.937,-0.464c1.592,-0.398 2.913,-1.072 3.964,-2.023c1.05,-0.951 1.907,-2.515 2.57,-4.693c0.663,-2.178 0.995,-5.147 0.995,-8.906c0,-3.758 -0.332,-6.644 -0.995,-8.656c-0.663,-2.012 -1.592,-3.582 -2.786,-4.71c-1.194,-1.127 -2.709,-1.89 -4.544,-2.288c-1.371,-0.31 -4.057,-0.465 -8.059,-0.465l-4.412,0Z" style="fill:#fff;fill-rule:nonzero;"/><path d="M324.606,50.554l19.436,0c3.847,0 6.716,0.16 8.607,0.481c1.89,0.321 3.582,0.989 5.074,2.007c1.493,1.017 2.737,2.371 3.732,4.062c0.995,1.692 1.492,3.588 1.492,5.689c0,2.277 -0.614,4.367 -1.841,6.268c-1.227,1.902 -2.891,3.328 -4.991,4.279c2.963,0.862 5.24,2.332 6.832,4.411c1.592,2.078 2.388,4.522 2.388,7.33c0,2.211 -0.514,4.361 -1.542,6.451c-1.028,2.089 -2.432,3.759 -4.212,5.008c-1.78,1.249 -3.975,2.018 -6.584,2.305c-1.636,0.177 -5.583,0.287 -11.841,0.332l-16.55,-0l0,-48.623Zm9.818,8.093l-0,11.243l6.434,0c3.825,0 6.202,-0.055 7.131,-0.166c1.68,-0.199 3.001,-0.779 3.963,-1.741c0.962,-0.962 1.443,-2.228 1.443,-3.797c0,-1.504 -0.415,-2.726 -1.244,-3.665c-0.829,-0.94 -2.062,-1.509 -3.698,-1.708c-0.973,-0.111 -3.77,-0.166 -8.391,-0.166l-5.638,-0Zm-0,19.336l-0,13.001l9.087,0c3.538,0 5.782,-0.099 6.733,-0.298c1.46,-0.265 2.648,-0.912 3.566,-1.94c0.917,-1.029 1.376,-2.405 1.376,-4.13c0,-1.459 -0.354,-2.697 -1.061,-3.714c-0.708,-1.017 -1.731,-1.758 -3.068,-2.223c-1.338,-0.464 -4.24,-0.696 -8.707,-0.696l-7.926,-0Z" style="fill:#fff;fill-rule:nonzero;"/></g><g><path d="M124.558,38.417l-60.196,-34.755l-60.195,34.755l-0,69.508l20.066,11.583l0,-69.508l40.129,-23.167l40.13,23.167l-0,69.508l20.066,-11.583l0,-69.508Z" style="fill:#fff;fill-rule:nonzero;"/><path d="M84.425,61.588l-20.063,-11.588l-20.066,11.588l-0,23.166l20.067,11.584l20.062,-11.584l0,-23.167Z" style="fill:#fff;fill-rule:nonzero;"/><path d="M84.425,107.925l-20.063,11.583l-20.066,-11.583l-0,23.167l20.067,11.583l20.062,-11.583l0,-23.167Z" style="fill:#fff;fill-rule:nonzero;"/></g></g></svg>